<?xml version="1.0" encoding="UTF-8"?>
<svg version="1.1" xmlns="http://www.w3.org/2000/svg" width="274" height="277">
<path d="M0 0 C3 1 3 1 4.46484375 3.52734375 C8.33464485 12.48844815 10.79420436 21.33553124 12.60498047 30.92236328 C12.95319402 32.75382023 13.33532755 34.57875835 13.72265625 36.40234375 C18.88099144 63.49214381 10.01005881 95.39759881 -5.28466797 117.88916016 C-8.03736855 121.72316849 -10.98020364 125.37417247 -14 129 C-14.55558594 129.69609375 -15.11117187 130.3921875 -15.68359375 131.109375 C-18.782019 134.90473602 -22.22572009 138.10918933 -25.96875 141.265625 C-27.23060802 142.34305762 -28.4662567 143.45306075 -29.65625 144.609375 C-55.19780815 168.98995323 -91.51736106 176.67155612 -125.5390625 176.1796875 C-141.11286415 175.81646322 -155.10329794 172.35399931 -170 168 C-172.31 173.94 -174.62 179.88 -177 186 C-185.70943347 178.53477131 -192.78887671 170.40863373 -199.7746582 161.37817383 C-202.45746733 157.92087847 -205.20914677 154.55456139 -208.07910156 151.2512207 C-215.01655505 143.26516938 -221.010905 134.70898859 -227 126 C-227.91852593 124.67526445 -228.83776894 123.35102574 -229.7578125 122.02734375 C-231.84500992 119.02267068 -233.92491933 116.01305906 -236 113 C-233.24403941 109.36057217 -229.17656456 108.47151689 -225.01171875 107.14453125 C-224.20951401 106.88178406 -223.40730927 106.61903687 -222.58079529 106.34832764 C-219.95305881 105.49223335 -217.32079845 104.65131789 -214.6875 103.8125 C-213.78763367 103.5230954 -212.88776733 103.2336908 -211.96063232 102.93551636 C-157.13837465 85.32072939 -157.13837465 85.32072939 -130 82 C-130.6338479 87.517155 -132.50564309 92.26747809 -134.5625 97.375 C-134.89185547 98.20644531 -135.22121094 99.03789062 -135.56054688 99.89453125 C-136.36844762 101.93184618 -137.1817011 103.96684442 -138 106 C-127.67742594 112.88171604 -110.47405964 110.93640908 -98.6875 108.8125 C-86.70073598 106.39823568 -77.52404064 101.56807653 -68 94 C-67.14148438 93.34128906 -66.28296875 92.68257813 -65.3984375 92.00390625 C-54.53217853 82.92509379 -48.70983138 68.79970418 -46.54296875 55.11328125 C-46.21434375 51.03053335 -46.0247683 48.22192151 -48.65234375 44.9296875 C-50.69862137 43.16920284 -52.82584226 41.59742506 -55 40 C-56.38332804 38.37458956 -57.74462118 36.72614587 -59 35 C-54.26395778 32.83970004 -49.52049209 30.80011218 -44.66186523 28.92919922 C-28.98504271 22.84744889 -14.80469355 14.68859432 -3.26953125 2.27734375 C-2 1 -2 1 0 0 Z " fill="#5CBE3F" transform="translate(256,90)"/>
<path d="M0 0 C3.74497621 3.65645859 7.22805537 7.45709998 10.625 11.4375 C11.14570068 12.04585693 11.66640137 12.65421387 12.20288086 13.28100586 C16.23651309 18.02749669 20.10302654 22.88835699 23.91772461 27.81152344 C27.07018702 31.86493269 30.34109734 35.79329382 33.6875 39.6875 C38.44485952 45.25117757 42.80950654 50.99927499 47 57 C47.46535156 57.65532715 47.93070313 58.3106543 48.41015625 58.98583984 C49.94812869 61.15168658 51.47528931 63.32480133 53 65.5 C53.74056641 66.54281128 53.74056641 66.54281128 54.49609375 67.60668945 C54.95113281 68.26241943 55.40617188 68.91814941 55.875 69.59375 C56.28492188 70.17833984 56.69484375 70.76292969 57.1171875 71.36523438 C58 73 58 73 58 76 C49.05113383 78.79326408 40.09741358 81.57060173 31.14056396 84.33813477 C29.03431396 84.98939008 26.92850469 85.64205446 24.82275391 86.29492188 C-35.57272319 105 -35.57272319 105 -49 105 C-48.3440206 99.36412069 -46.43967159 94.39011658 -44.4375 89.125 C-44.10814453 88.24585937 -43.77878906 87.36671875 -43.43945312 86.4609375 C-42.63113386 84.30541947 -41.81787706 82.15190559 -41 80 C-63.31391068 75.07393299 -83.57850905 76.23832938 -103.625 88.1875 C-112.94846205 94.40314136 -119.89204894 102.05855495 -125 112 C-125.46277344 112.84046875 -125.92554687 113.6809375 -126.40234375 114.546875 C-130.09664994 121.78557351 -133.15532853 129.81000444 -132 138 C-129.59504536 141.89915093 -126.20225258 144.72770726 -122.6953125 147.609375 C-121.80585937 148.39828125 -120.91640625 149.1871875 -120 150 C-120 150.99 -120 151.98 -120 153 C-121.34578125 153.4021875 -121.34578125 153.4021875 -122.71875 153.8125 C-144.28133283 160.58422023 -163.08925337 171.86465888 -179 188 C-184.47815833 178.39910395 -187.34494739 168.65823678 -190 158 C-190.17958252 157.40638672 -190.35916504 156.81277344 -190.54418945 156.20117188 C-194.16504521 138.71556099 -192.03194369 116.60195607 -186 100 C-185.74299316 99.26587891 -185.48598633 98.53175781 -185.22119141 97.77539062 C-178.93794814 80.17150957 -169.26477998 65.16258598 -156 52 C-155.23042969 51.17242187 -154.46085937 50.34484375 -153.66796875 49.4921875 C-138.22029424 33.19306637 -117.7555826 21.74099023 -96.22998047 15.63330078 C-94.79951069 15.22705614 -93.37341151 14.80489192 -91.95361328 14.36279297 C-68.34314042 7.12667862 -39.65440829 9.14308538 -16.14892578 15.44873047 C-13.45623747 16.13949282 -10.75055729 16.60576856 -8 17 C-7.50628906 15.85660156 -7.01257813 14.71320312 -6.50390625 13.53515625 C-5.85689488 12.044217 -5.2097527 10.5533345 -4.5625 9.0625 C-4.23701172 8.30775391 -3.91152344 7.55300781 -3.57617188 6.77539062 C-1.11328125 1.11328125 -1.11328125 1.11328125 0 0 Z " fill="#1895DE" transform="translate(191,0)"/>
<path d="M0 0 C0.33 0 0.66 0 1 0 C0.91136861 24.28500115 -10.66633938 46.78126037 -26 65 C-26.83144531 66.04027344 -26.83144531 66.04027344 -27.6796875 67.1015625 C-30.77693676 70.90197105 -34.22342646 74.10725515 -37.96875 77.265625 C-39.23060802 78.34305762 -40.4662567 79.45306075 -41.65625 80.609375 C-67.19780815 104.98995323 -103.51736106 112.67155612 -137.5390625 112.1796875 C-153.11286415 111.81646322 -167.10329794 108.35399931 -182 104 C-184.31 109.94 -186.62 115.88 -189 122 C-197.72155778 114.52437905 -204.80921641 106.37799405 -211.81860352 97.34521484 C-216.40337251 91.44184979 -221.17815215 85.71090874 -226 80 C-225.01 79.505 -225.01 79.505 -224 79 C-222.5 80.375 -222.5 80.375 -221 82 C-221 82.66 -221 83.32 -221 84 C-220.34 84 -219.68 84 -219 84 C-218 85 -217 86 -216 87 C-215.34 87 -214.68 87 -214 87 C-212.38658567 88.97294956 -210.98168195 91.05469651 -209.53515625 93.15234375 C-208.04300394 95.27877271 -208.04300394 95.27877271 -205 96 C-204.67 98.64 -204.34 101.28 -204 104 C-202.02 104 -200.04 104 -198 104 C-198 105.65 -198 107.3 -198 109 C-197.34 109.33 -196.68 109.66 -196 110 C-196 110.66 -196 111.32 -196 112 C-193.03 112 -190.06 112 -187 112 C-186.91934883 108.45134864 -187.05685873 105.41610225 -188 102 C-182.72934568 101.23868326 -178.26049611 100.88074551 -173 102 C-171.56355961 102.17556494 -170.12596419 102.34187096 -168.6875 102.5 C-165 103 -165 103 -164 104 C-160.535 103.01 -160.535 103.01 -157 102 C-156.67 103.65 -156.34 105.3 -156 107 C-155.16855469 107.13277344 -154.33710938 107.26554687 -153.48046875 107.40234375 C-151.85044922 107.66724609 -151.85044922 107.66724609 -150.1875 107.9375 C-149.10855469 108.11152344 -148.02960938 108.28554688 -146.91796875 108.46484375 C-144 109 -144 109 -141 110 C-137.33018719 110.08615877 -133.6660651 109.8562407 -130 109.6875 C-129.00871094 109.65205078 -128.01742187 109.61660156 -126.99609375 109.58007812 C-119.19534558 109.23936748 -111.44073434 108.48024478 -104 106 C-103.505 104.515 -103.505 104.515 -103 103 C-101.63875 103.556875 -101.63875 103.556875 -100.25 104.125 C-97.12552291 105.32136602 -97.12552291 105.32136602 -94.75 104.0625 C-94.1725 103.711875 -93.595 103.36125 -93 103 C-92.34 103.33 -91.68 103.66 -91 104 C-89.6526707 103.3620925 -88.32117376 102.69045066 -87 102 C-85.49063466 101.59976967 -83.96830388 101.24573293 -82.4375 100.9375 C-79.85979971 100.41152743 -77.50492348 99.83497449 -75 99 C-74.26676204 96.98491642 -74.26676204 96.98491642 -74 95 C-72.948125 94.95875 -71.89625 94.9175 -70.8125 94.875 C-65.7982422 93.72418674 -64.99672811 92.02417775 -62 88 C-61.34 88 -60.68 88 -60 88 C-59.67 87.34 -59.34 86.68 -59 86 C-58.01 86.99 -57.02 87.98 -56 89 C-56 88.34 -56 87.68 -56 87 C-55.360625 86.814375 -54.72125 86.62875 -54.0625 86.4375 C-51.57873787 85.05753944 -51.57873787 85.05753944 -51.25 81.375 C-51.1675 80.26125 -51.085 79.1475 -51 78 C-48.69 78.33 -46.38 78.66 -44 79 C-44.103125 78.071875 -44.20625 77.14375 -44.3125 76.1875 C-44 73 -44 73 -41.75 71.125 C-39 70 -39 70 -35 70 C-35 69.34 -35 68.68 -35 68 C-34.34 68 -33.68 68 -33 68 C-32.67 66.35 -32.34 64.7 -32 63 C-29.92446352 62.4465236 -28.15634036 62 -26 62 C-26.185625 61.236875 -26.37125 60.47375 -26.5625 59.6875 C-27 57 -27 57 -26 54 C-24.35 54 -22.7 54 -21 54 C-20.814375 53.195625 -20.814375 53.195625 -20.625 52.375 C-20 50 -20 50 -18.75 47.125 C-17.65616239 43.90541756 -17.65616239 43.90541756 -19.375 40.625 C-20.179375 39.325625 -20.179375 39.325625 -21 38 C-21.99 38.495 -21.99 38.495 -23 39 C-21.33683133 35.23742169 -18.93143026 32.11356346 -16.4375 28.875 C-13.46232182 25.10438856 -13.46232182 25.10438856 -11 21 C-10.34 21 -9.68 21 -9 21 C-8.89816406 20.30519531 -8.79632813 19.61039063 -8.69140625 18.89453125 C-7.88282994 15.50947448 -6.53324287 12.77712981 -4.9375 9.6875 C-4.38964844 8.61886719 -3.84179688 7.55023438 -3.27734375 6.44921875 C-2.85582031 5.64097656 -2.43429687 4.83273438 -2 4 C-1.34 4 -0.68 4 0 4 C0 2.68 0 1.36 0 0 Z " fill="#34943D" transform="translate(268,154)"/>
<path d="M0 0 C3.74497621 3.65645859 7.22805537 7.45709998 10.625 11.4375 C11.14570068 12.04585693 11.66640137 12.65421387 12.20288086 13.28100586 C16.23651309 18.02749669 20.10302654 22.88835699 23.91772461 27.81152344 C27.07018702 31.86493269 30.34109734 35.79329382 33.6875 39.6875 C38.44485952 45.25117757 42.80950654 50.99927499 47 57 C47.46535156 57.65532715 47.93070313 58.3106543 48.41015625 58.98583984 C49.94812869 61.15168658 51.47528931 63.32480133 53 65.5 C53.74056641 66.54281128 53.74056641 66.54281128 54.49609375 67.60668945 C54.95113281 68.26241943 55.40617188 68.91814941 55.875 69.59375 C56.28492188 70.17833984 56.69484375 70.76292969 57.1171875 71.36523438 C58 73 58 73 58 76 C50.37604198 78.36976512 42.75126185 80.73685428 35.12535095 83.10032654 C31.78534383 84.1356482 28.44568244 85.17205286 25.10693359 86.21142578 C21.50956013 87.330952 17.91114468 88.44706799 14.3125 89.5625 C13.20342285 89.90861328 12.0943457 90.25472656 10.95166016 90.61132812 C9.93249512 90.92650391 8.91333008 91.24167969 7.86328125 91.56640625 C6.96907471 91.84427979 6.07486816 92.12215332 5.15356445 92.40844727 C3 93 3 93 1 93 C1 92.34 1 91.68 1 91 C4.71679481 88.12248144 8.49891496 87.29432554 13.01171875 86.4296875 C15.06103089 86.0728968 15.06103089 86.0728968 17 85 C17.495 83.515 17.495 83.515 18 82 C21 81 21 81 24 82 C27.19132103 82 29.61919692 81.78430479 32.6875 81.125 C33.47511719 80.96257812 34.26273437 80.80015625 35.07421875 80.6328125 C36.02748047 80.31957031 36.02748047 80.31957031 37 80 C37.33 79.34 37.66 78.68 38 78 C38.99 78 39.98 78 41 78 C42.09658936 74.71023192 41.79953138 73.28696233 41 70 C43.64 70 46.28 70 49 70 C49 68.02 49 66.04 49 64 C48.4225 63.855625 47.845 63.71125 47.25 63.5625 C44.125 62.78125 44.125 62.78125 41 62 C41.37125 61.13375 41.37125 61.13375 41.75 60.25 C41.8325 59.5075 41.915 58.765 42 58 C40.14567913 55.72855926 40.14567913 55.72855926 38 54 C38.495 53.01 38.495 53.01 39 52 C38.34 52 37.68 52 37 52 C37 52.66 37 53.32 37 54 C35.515 53.505 35.515 53.505 34 53 C33.83126522 51.56274129 33.66509263 50.12518162 33.5 48.6875 C33.4071875 47.88699219 33.314375 47.08648437 33.21875 46.26171875 C33 44 33 44 33 41 C32.34 41 31.68 41 31 41 C29.62689293 39.70766393 28.28965176 38.37562854 27 37 C26.505 37.99 26.505 37.99 26 39 C25 34.25 25 34.25 25 32 C23.68 32 22.36 32 21 32 C21 31.34 21 30.68 21 30 C20.01 30 19.02 30 18 30 C17.505 27.03 17.505 27.03 17 24 C15.68 24 14.36 24 13 24 C13 23.34 13 22.68 13 22 C11.68 22.33 10.36 22.66 9 23 C9.33 20.36 9.66 17.72 10 15 C8.824375 14.9071875 8.824375 14.9071875 7.625 14.8125 C6.75875 14.544375 5.8925 14.27625 5 14 C3.6875 11.4375 3.6875 11.4375 3 9 C-0.24849977 10.72226496 -0.24849977 10.72226496 -1 14 C0.32 14.66 1.64 15.32 3 16 C-2.625 20 -2.625 20 -6 20 C-6.66 21.32 -7.32 22.64 -8 24 C-9.32 24 -10.64 24 -12 24 C-12 23.34 -12 22.68 -12 22 C-12.99 22 -13.98 22 -15 22 C-15 20.68 -15 19.36 -15 18 C-16.11375 17.855625 -17.2275 17.71125 -18.375 17.5625 C-22 17 -22 17 -24 16 C-25.051875 16 -26.10375 16 -27.1875 16 C-31.64659305 16 -35.88936378 15.60303892 -40.1875 14.375 C-42.39203399 13.91888952 -43.85687955 14.40879436 -46 15 C-46.495 14.505 -46.495 14.505 -47 14 C-48.37083721 13.90094837 -49.74668413 13.8692034 -51.12109375 13.8671875 C-51.96994141 13.86525391 -52.81878906 13.86332031 -53.69335938 13.86132812 C-54.59892578 13.86583984 -55.50449219 13.87035156 -56.4375 13.875 C-57.34951172 13.87693359 -58.26152344 13.87886719 -59.20117188 13.88085938 C-64.54886202 13.91526196 -69.81671396 14.07868273 -75.125 14.78125 C-77 15 -77 15 -81 15 C-81 14.01 -81 13.02 -81 12 C-76.3773767 11.11072273 -71.85926561 10.79830436 -67.1640625 10.7265625 C-66.04124123 10.70811028 -66.04124123 10.70811028 -64.89573669 10.68928528 C-62.47212067 10.65717228 -60.04878978 10.6383492 -57.625 10.625 C-56.80063446 10.61977325 -55.97626892 10.61454651 -55.12692261 10.60916138 C-41.60961445 10.56958378 -29.25428008 11.93305224 -16.14892578 15.44873047 C-13.45623747 16.13949282 -10.75055729 16.60576856 -8 17 C-7.50628906 15.85660156 -7.01257813 14.71320312 -6.50390625 13.53515625 C-5.85689488 12.044217 -5.2097527 10.5533345 -4.5625 9.0625 C-4.07426758 7.93038086 -4.07426758 7.93038086 -3.57617188 6.77539062 C-1.11328125 1.11328125 -1.11328125 1.11328125 0 0 Z " fill="#47D8F2" transform="translate(191,0)"/>
<path d="M0 0 C-0.845625 1.010625 -1.69125 2.02125 -2.5625 3.0625 C-9.26830007 12.10975521 -14.35511898 23.14850621 -15.59765625 34.40234375 C-14.57139563 40.58003022 -10.3672519 43.77426179 -5.6953125 47.609375 C-4.80585937 48.39828125 -3.91640625 49.1871875 -3 50 C-3 50.99 -3 51.98 -3 53 C-3.8971875 53.268125 -4.794375 53.53625 -5.71875 53.8125 C-27.28133283 60.58422023 -46.08925337 71.86465888 -62 88 C-67.47815833 78.39910395 -70.34494739 68.65823678 -73 58 C-73.18030762 57.40856201 -73.36061523 56.81712402 -73.54638672 56.20776367 C-74.76764969 50.26380185 -74.29018578 43.87415824 -74.3125 37.8125 C-74.31644775 37.04488342 -74.32039551 36.27726685 -74.32446289 35.48638916 C-74.3516858 24.21107603 -73.72610815 13.74582976 -70 3 C-69.67 3 -69.34 3 -69 3 C-68.83692229 7.48463708 -68.97217714 11.32620856 -70.0625 15.6875 C-70.93395252 19.23382761 -70.82538484 21.42333237 -70 25 C-70.23577134 26.90912194 -70.47425979 28.81797707 -70.73120117 30.72436523 C-71.18464159 34.56316462 -71.30419254 38.38777464 -71.375 42.25 C-71.41238281 43.03890625 -71.44976562 43.8278125 -71.48828125 44.640625 C-71.52218845 46.87096514 -71.49219274 48.82332004 -71 51 C-68.66140773 53.42935687 -68.66140773 53.42935687 -66 55 C-65 57.5625 -65 57.5625 -65 60 C-66.375 61.625 -66.375 61.625 -68 63 C-68.33 63.99 -68.66 64.98 -69 66 C-68.01 66.33 -67.02 66.66 -66 67 C-66 69.97 -66 72.94 -66 76 C-64.68 76 -63.36 76 -62 76 C-61.67 76.66 -61.34 77.32 -61 78 C-57.20696275 76.99806563 -54.28463659 76.18975773 -51 74 C-50.7525 73.360625 -50.505 72.72125 -50.25 72.0625 C-48.3320952 68.89795709 -45.34176641 68.3725112 -42 67 C-39.81509993 64.32357511 -39.81509993 64.32357511 -40 62 C-39.18208984 61.85304688 -39.18208984 61.85304688 -38.34765625 61.703125 C-33.14242777 60.67097713 -28.62548231 59.11354877 -23.84765625 56.8046875 C-22 56 -22 56 -20 56 C-19.505 55.01 -19.505 55.01 -19 54 C-16.93359375 53.3671875 -16.93359375 53.3671875 -14.4375 52.875 C-13.61121094 52.70742187 -12.78492188 52.53984375 -11.93359375 52.3671875 C-11.29550781 52.24601562 -10.65742187 52.12484375 -10 52 C-10.495 50.824375 -10.495 50.824375 -11 49.625 C-12 47 -12 47 -12 45 C-13.98 45.495 -13.98 45.495 -16 46 C-18.98091108 41.52863338 -18.36829007 37.26058588 -18.375 32 C-18.39949219 30.989375 -18.42398438 29.97875 -18.44921875 28.9375 C-18.45501953 27.4834375 -18.45501953 27.4834375 -18.4609375 26 C-18.46915527 25.113125 -18.47737305 24.22625 -18.48583984 23.3125 C-18 21 -18 21 -15.97119141 19.1875 C-15.32069824 18.795625 -14.67020508 18.40375 -14 18 C-14.66 16.35 -15.32 14.7 -16 13 C-15.236875 12.855625 -14.47375 12.71125 -13.6875 12.5625 C-9.98267748 10.40853342 -9.88097703 8.10968671 -8.7421875 4.13671875 C-8 2 -8 2 -6.0625 -0.125 C-3.55281386 -1.18971533 -2.54725278 -0.75513548 0 0 Z " fill="#09398B" transform="translate(74,100)"/>
<path d="M0 0 C3 1 3 1 4.46484375 3.52734375 C10.03891746 16.4349468 13.37919543 29.90773636 14 44 C12.35 43.67 10.7 43.34 9 43 C9.495 42.01 9.495 42.01 10 41 C10.54999931 34.22020082 10.18704702 28.33196374 7.734375 21.98046875 C6.76633881 19.36986052 6.35306365 16.75389645 6 14 C3.36 14.33 0.72 14.66 -2 15 C-2.66 14.01 -3.32 13.02 -4 12 C-4.9590625 12.2784375 -4.9590625 12.2784375 -5.9375 12.5625 C-6.618125 12.706875 -7.29875 12.85125 -8 13 C-8.495 12.505 -8.495 12.505 -9 12 C-9.598125 12.598125 -10.19625 13.19625 -10.8125 13.8125 C-18 21 -18 21 -20.3125 21.8125 C-23.19975381 22.87619188 -23.19975381 22.87619188 -25.375 25.5625 C-28.61468294 28.57077701 -30.66919267 28.67919946 -35 29 C-35.99 29.33 -36.98 29.66 -38 30 C-38 30.66 -38 31.32 -38 32 C-38.66 32 -39.32 32 -40 32 C-40 33.65 -40 35.3 -40 37 C-40.804375 37.12375 -41.60875 37.2475 -42.4375 37.375 C-43.283125 37.58125 -44.12875 37.7875 -45 38 C-45.33 38.66 -45.66 39.32 -46 40 C-46.33 39.34 -46.66 38.68 -47 38 C-47.77242269 39.83700789 -47.77242269 39.83700789 -48 42 C-46.60411246 43.64594139 -46.60411246 43.64594139 -45 45 C-45 45.66 -45 46.32 -45 47 C-43.68 47.33 -42.36 47.66 -41 48 C-41.33 49.32 -41.66 50.64 -42 52 C-41.34 52 -40.68 52 -40 52 C-38.875 57.75 -38.875 57.75 -40 60 C-41.65 59.67 -43.3 59.34 -45 59 C-44.690625 59.8971875 -44.690625 59.8971875 -44.375 60.8125 C-44 63 -44 63 -46 66 C-46.66 66 -47.32 66 -48 66 C-47.835 64.906875 -47.67 63.81375 -47.5 62.6875 C-47.32556023 61.1258487 -47.15976315 59.56322096 -47 58 C-46.88527344 57.09765625 -46.77054688 56.1953125 -46.65234375 55.265625 C-46.18241454 49.70850702 -46.18241454 49.70850702 -48.64453125 44.91796875 C-50.69744995 43.16975042 -52.82805198 41.5958015 -55 40 C-56.38332804 38.37458956 -57.74462118 36.72614587 -59 35 C-54.26395778 32.83970004 -49.52049209 30.80011218 -44.66186523 28.92919922 C-28.98504271 22.84744889 -14.80469355 14.68859432 -3.26953125 2.27734375 C-2 1 -2 1 0 0 Z " fill="#379C36" transform="translate(256,90)"/>
<path d="M0 0 C-0.6338479 5.517155 -2.50564309 10.26747809 -4.5625 15.375 C-4.89185547 16.20644531 -5.22121094 17.03789062 -5.56054688 17.89453125 C-6.36844762 19.93184618 -7.1817011 21.96684442 -8 24 C2.32257406 30.88171604 19.52594036 28.93640908 31.3125 26.8125 C43.33554142 24.39092902 52.41895285 19.52691759 62 12 C63.51753546 10.82904686 65.03802166 9.66189971 66.5625 8.5 C67.49255859 7.77296875 67.49255859 7.77296875 68.44140625 7.03125 C70 6 70 6 72 6 C71.875 7.75 71.875 7.75 71 10 C69.989375 10.66 68.97875 11.32 67.9375 12 C66.968125 12.66 65.99875 13.32 65 14 C65 15.32 65 16.64 65 18 C65 18.66 65 19.32 65 20 C63.948125 19.690625 63.948125 19.690625 62.875 19.375 C58.59834697 18.81717569 55.6355378 19.78720714 52.15625 22.3671875 C51.5065625 22.88539063 50.856875 23.40359375 50.1875 23.9375 C43.47177666 29.14951299 37.5126995 30.16398521 29.17578125 29.83984375 C26.7406962 29.82001251 26.7406962 29.82001251 24.375 32 C23.92125 32.66 23.4675 33.32 23 34 C22.360625 33.62875 21.72125 33.2575 21.0625 32.875 C16.79840638 31.65668754 13.13057394 32.46383614 9 34 C8.67 34.66 8.34 35.32 8 36 C7.34 35.67 6.68 35.34 6 35 C6 34.01 6 33.02 6 32 C4.515 32.495 4.515 32.495 3 33 C3 32.34 3 31.68 3 31 C0.69 30.34 -1.62 29.68 -4 29 C-4.33 29.99 -4.66 30.98 -5 32 C-5.99 32 -6.98 32 -8 32 C-8.33 31.01 -8.66 30.02 -9 29 C-8.67 28.34 -8.34 27.68 -8 27 C-9.65 27.33 -11.3 27.66 -13 28 C-13.86325845 25.58287634 -14.1132654 24.35009306 -13.3125 21.875 C-12 20 -12 20 -10 19.1875 C-7.62948074 18.06143698 -7.62948074 18.06143698 -6.75 14.6875 C-6.12822683 11.6304486 -5.81252066 9.09340906 -6 6 C-7.32 5.34 -8.64 4.68 -10 4 C-10 3.34 -10 2.68 -10 2 C-8.7090864 1.66376204 -7.41723903 1.33110751 -6.125 1 C-5.40570313 0.814375 -4.68640625 0.62875 -3.9453125 0.4375 C-2 0 -2 0 0 0 Z " fill="#80CB51" transform="translate(126,172)"/>
<path d="M0 0 C1.32 0.33 2.64 0.66 4 1 C4.33 2.32 4.66 3.64 5 5 C5.66 5 6.32 5 7 5 C8 6 9 7 10 8 C10.66 8 11.32 8 12 8 C13.61341433 9.97294956 15.01831805 12.05469651 16.46484375 14.15234375 C17.95699606 16.27877271 17.95699606 16.27877271 21 17 C21.33 19.64 21.66 22.28 22 25 C23.98 25 25.96 25 28 25 C28 26.65 28 28.3 28 30 C28.66 30.33 29.32 30.66 30 31 C30 31.66 30 32.32 30 33 C32.97 33 35.94 33 39 33 C39.08065117 29.45134864 38.94314127 26.41610225 38 23 C43.27065432 22.23868326 47.73950389 21.88074551 53 23 C54.43644039 23.17556494 55.87403581 23.34187096 57.3125 23.5 C61 24 61 24 62 25 C64.31 24.34 66.62 23.68 69 23 C69.495 25.475 69.495 25.475 70 28 C70.85464844 28.13277344 71.70929688 28.26554687 72.58984375 28.40234375 C73.69457031 28.57894531 74.79929687 28.75554687 75.9375 28.9375 C77.03964844 29.11152344 78.14179687 29.28554688 79.27734375 29.46484375 C82 30 82 30 83 31 C84.92478813 31.15806531 86.8549921 31.251135 88.78515625 31.31640625 C89.95498047 31.35830078 91.12480469 31.40019531 92.33007812 31.44335938 C94.17762695 31.50233398 94.17762695 31.50233398 96.0625 31.5625 C97.91584961 31.62727539 97.91584961 31.62727539 99.80664062 31.69335938 C102.87097335 31.79984198 105.93539073 31.90185424 109 32 C109 32.33 109 32.66 109 33 C85.86367982 33.33008358 66.20687672 31.49061286 44 25 C41.69 30.94 39.38 36.88 37 43 C28.27914506 35.52498148 21.18530835 27.37988388 14.18139648 18.34301758 C10.18454403 13.19172246 6.02138822 8.19936374 1.80078125 3.23046875 C0 1 0 1 0 0 Z " fill="#409A43" transform="translate(42,233)"/>
<path d="M0 0 C-1.20381448 2.49361571 -2.45428722 4.68143083 -4 7 C-4 6.34 -4 5.68 -4 5 C-4.9590625 5.99 -4.9590625 5.99 -5.9375 7 C-10.04464253 9.68221553 -13.23379829 9.37381974 -18 9 C-18 8.01 -18 7.02 -18 6 C-18.556875 6.4846875 -19.11375 6.969375 -19.6875 7.46875 C-22.9536497 9.63147074 -25.73470598 9.45370876 -29.5625 9.59375 C-32.43323541 10.0722059 -33.79843008 11.15225382 -36 13 C-36.33 13 -36.66 13 -37 13 C-37.33 13.99 -37.66 14.98 -38 16 C-38.495 15.01 -38.495 15.01 -39 14 C-40.051875 14.350625 -41.10375 14.70125 -42.1875 15.0625 C-45.88902314 15.97271061 -47.42856518 15.81632796 -51 15 C-51.66 15.66 -52.32 16.32 -53 17 C-54.97123511 17.30632143 -56.95286711 17.54792829 -58.9375 17.75 C-62.14882951 18.15033342 -62.14882951 18.15033342 -65 19 C-67.37734782 21.90586843 -67.37734782 21.90586843 -68 25 C-68.66 25 -69.32 25 -70 25 C-70 24.34 -70 23.68 -70 23 C-70.66 23 -71.32 23 -72 23 C-72 23.66 -72 24.32 -72 25 C-72.99 25 -73.98 25 -75 25 C-75 24.34 -75 23.68 -75 23 C-75.99 23 -76.98 23 -78 23 C-78 22.34 -78 21.68 -78 21 C-60.23932526 14.79827207 -42.46741666 9.4822528 -24.24511719 4.82958984 C-21.4022504 4.1028323 -18.56372188 3.36192956 -15.7265625 2.61328125 C-4.84832757 -0.21668503 -4.84832757 -0.21668503 0 0 Z " fill="#7FCC4E" transform="translate(114,175)"/>
<path d="M0 0 C0.495 0.99 0.495 0.99 1 2 C2.65 2 4.3 2 6 2 C6 2.66 6 3.32 6 4 C5.34 4 4.68 4 4 4 C3.67 4.99 3.34 5.98 3 7 C2.34 7.99 1.68 8.98 1 10 C2.32 10.66 3.64 11.32 5 12 C-0.625 16 -0.625 16 -4 16 C-4.66 17.32 -5.32 18.64 -6 20 C-7.32 20 -8.64 20 -10 20 C-10 19.34 -10 18.68 -10 18 C-10.99 18 -11.98 18 -13 18 C-13 16.68 -13 15.36 -13 14 C-14.11375 13.855625 -15.2275 13.71125 -16.375 13.5625 C-20 13 -20 13 -22 12 C-23.051875 12 -24.10375 12 -25.1875 12 C-29.64659305 12 -33.88936378 11.60303892 -38.1875 10.375 C-40.39203399 9.91888952 -41.85687955 10.40879436 -44 11 C-44.495 10.505 -44.495 10.505 -45 10 C-46.37083721 9.90094837 -47.74668413 9.8692034 -49.12109375 9.8671875 C-49.96994141 9.86525391 -50.81878906 9.86332031 -51.69335938 9.86132812 C-52.59892578 9.86583984 -53.50449219 9.87035156 -54.4375 9.875 C-55.34951172 9.87693359 -56.26152344 9.87886719 -57.20117188 9.88085938 C-62.54886202 9.91526196 -67.81671396 10.07868273 -73.125 10.78125 C-75 11 -75 11 -79 11 C-79 10.01 -79 9.02 -79 8 C-74.3773767 7.11072273 -69.85926561 6.79830436 -65.1640625 6.7265625 C-64.04124123 6.70811028 -64.04124123 6.70811028 -62.89573669 6.68928528 C-60.47212067 6.65717228 -58.04878978 6.6383492 -55.625 6.625 C-54.80063446 6.61977325 -53.97626892 6.61454651 -53.12692261 6.60916138 C-39.68763778 6.56981223 -27.31112661 7.82865649 -14.29711914 11.42749023 C-11.56573195 12.10823239 -8.77663948 12.53722675 -6 13 C-4.02 8.71 -2.04 4.42 0 0 Z " fill="#43C6E4" transform="translate(189,4)"/>
<path d="M0 0 C0 3 0 3 -2 6 C-2.66 6 -3.32 6 -4 6 C-4.268125 6.9075 -4.53625 7.815 -4.8125 8.75 C-6 12 -6 12 -7.625 14.0625 C-9.36976412 16.52103126 -9.0776023 18.05111262 -9 21 C-9.66 21.66 -10.32 22.32 -11 23 C-11.64767793 25.57061311 -11.64767793 25.57061311 -12 28 C-12.99 27.34 -13.98 26.68 -15 26 C-18.50177065 29.84903548 -18.50177065 29.84903548 -19 35 C-19.66 35.66 -20.32 36.32 -21 37 C-20.34 37.33 -19.68 37.66 -19 38 C-19 39.98 -19 41.96 -19 44 C-19.99 44.495 -19.99 44.495 -21 45 C-21.99 44.67 -22.98 44.34 -24 44 C-24.144375 44.804375 -24.28875 45.60875 -24.4375 46.4375 C-25 49 -25 49 -26 50 C-26.2819396 52.28684338 -26.44777005 54.57363273 -26.62109375 56.87109375 C-27 59 -27 59 -29 61 C-28.34 61.99 -27.68 62.98 -27 64 C-28.65 65.65 -30.3 67.3 -32 69 C-33.42327401 66.15345198 -32.33269757 64.31289122 -31.51953125 61.375 C-30.97490056 58.88525971 -30.88620184 56.60715292 -30.8125 54.0625 C-29.16600207 33.88592363 -13.89526844 13.65234416 0 0 Z " fill="#0966CF" transform="translate(35,52)"/>
<path d="M0 0 C0.33 0 0.66 0 1 0 C0.49422674 10.74768188 -1.83048208 24.914751 -8 34 C-11.125 36.125 -11.125 36.125 -14 37 C-14.66 36.67 -15.32 36.34 -16 36 C-16.33 36.66 -16.66 37.32 -17 38 C-17.66 36.68 -18.32 35.36 -19 34 C-19.99 34.495 -19.99 34.495 -21 35 C-19.33683133 31.23742169 -16.93143026 28.11356346 -14.4375 24.875 C-11.46232182 21.10438856 -11.46232182 21.10438856 -9 17 C-8.34 17 -7.68 17 -7 17 C-6.89816406 16.30519531 -6.79632813 15.61039063 -6.69140625 14.89453125 C-5.88282994 11.50947448 -4.53324287 8.77712981 -2.9375 5.6875 C-2.38964844 4.61886719 -1.84179688 3.55023438 -1.27734375 2.44921875 C-0.85582031 1.64097656 -0.43429687 0.83273438 0 0 Z " fill="#3CA836" transform="translate(266,158)"/>
<path d="M0 0 C0.33 0 0.66 0 1 0 C0.91136971 24.28469825 -10.66659535 46.78030742 -26 65 C-26.93147076 66.1180889 -27.86246508 67.23657489 -28.79296875 68.35546875 C-29.88544922 69.66451172 -29.88544922 69.66451172 -31 71 C-33 68 -33 68 -32.625 65.3125 C-32.41875 64.549375 -32.2125 63.78625 -32 63 C-29.92446352 62.4465236 -28.15634036 62 -26 62 C-26.185625 61.236875 -26.37125 60.47375 -26.5625 59.6875 C-27 57 -27 57 -26 54 C-24.35 54 -22.7 54 -21 54 C-20.87625 53.46375 -20.7525 52.9275 -20.625 52.375 C-20 50 -20 50 -18.9375 47 C-17.80115 43.88752547 -17.80115 43.88752547 -18 40 C-15.33333333 39.33333333 -12.66666667 38.66666667 -10 38 C-9.88269531 37.47535156 -9.76539063 36.95070312 -9.64453125 36.41015625 C-8.82714085 33.35361155 -7.74486735 30.41973423 -6.6875 27.4375 C-3.59605278 18.48011374 -1.78990639 9.28951415 0 0 Z " fill="#409A43" transform="translate(268,154)"/>
<path d="M0 0 C3.74497621 3.65645859 7.22805537 7.45709998 10.625 11.4375 C11.14570068 12.04585693 11.66640137 12.65421387 12.20288086 13.28100586 C16.23008491 18.01993246 20.08950276 22.87364702 23.90014648 27.78735352 C28.74764563 34.01582113 33.85873794 40.01346275 39 46 C38.01 46.66 37.02 47.32 36 48 C33 44.375 33 44.375 33 41 C32.34 41 31.68 41 31 41 C29.62689293 39.70766393 28.28965176 38.37562854 27 37 C26.67 37.66 26.34 38.32 26 39 C25 34.25 25 34.25 25 32 C23.68 32 22.36 32 21 32 C21 31.34 21 30.68 21 30 C20.01 30 19.02 30 18 30 C17.67 28.02 17.34 26.04 17 24 C15.68 24 14.36 24 13 24 C13 23.34 13 22.68 13 22 C11.68 22.33 10.36 22.66 9 23 C9.33 20.36 9.66 17.72 10 15 C8.35 14.67 6.7 14.34 5 14 C4.26919734 12.02253397 3.60578253 10.01927511 3 8 C3.33 7.34 3.66 6.68 4 6 C2.35 6 0.7 6 -1 6 C-1.33 5.01 -1.66 4.02 -2 3 C-1.34 2.01 -0.68 1.02 0 0 Z " fill="#47D1E7" transform="translate(191,0)"/>
<path d="M0 0 C1.32 0 2.64 0 4 0 C4 0.66 4 1.32 4 2 C4.763125 2.28875 5.52625 2.5775 6.3125 2.875 C9 4 9 4 12 6 C11.34 6 10.68 6 10 6 C10 6.66 10 7.32 10 8 C4.8094557 9.65883771 -0.38264882 11.31267006 -5.57617188 12.9621582 C-7.33766217 13.52235458 -9.09874114 14.08384623 -10.859375 14.64672852 C-20.51008242 17.73111654 -30.11313838 20.75332697 -40 23 C-40 22.34 -40 21.68 -40 21 C-36.28320519 18.12248144 -32.50108504 17.29432554 -27.98828125 16.4296875 C-25.93896911 16.0728968 -25.93896911 16.0728968 -24 15 C-23.67 14.01 -23.34 13.02 -23 12 C-20 11 -20 11 -17 12 C-13.80867897 12 -11.38080308 11.78430479 -8.3125 11.125 C-7.52488281 10.96257812 -6.73726562 10.80015625 -5.92578125 10.6328125 C-4.97251953 10.31957031 -4.97251953 10.31957031 -4 10 C-3.67 9.34 -3.34 8.68 -3 8 C-2.01 8 -1.02 8 0 8 C1.09658936 4.71023192 0.79953138 3.28696233 0 0 Z " fill="#39BBE1" transform="translate(232,70)"/>
<path d="M0 0 C2.29633824 3.44450737 2.54016485 5.93812283 3 10 C4.98 10 6.96 10 9 10 C9 10.66 9 11.32 9 12 C9.99 12.33 10.98 12.66 12 13 C11.34 13 10.68 13 10 13 C10 13.99 10 14.98 10 16 C7.56318413 16.50354867 5.12564561 17.00296756 2.6875 17.5 C1.99720703 17.64308594 1.30691406 17.78617188 0.59570312 17.93359375 C-2.32524773 18.52625044 -5.01108122 19 -8 19 C-7.51421457 15.87709365 -7.0013988 13.00419641 -6 10 C-5.01 10 -4.02 10 -3 10 C-2.814375 8.9171875 -2.814375 8.9171875 -2.625 7.8125 C-2.0095069 5.04278106 -1.11555626 2.6029646 0 0 Z " fill="#1D9DDA" transform="translate(150,86)"/>
<path d="M0 0 C0.33 0 0.66 0 1 0 C1.16307771 4.48463708 1.02782286 8.32620856 -0.0625 12.6875 C-0.93395252 16.23382761 -0.82538484 18.42333237 0 22 C-0.23577134 23.90912194 -0.47425979 25.81797707 -0.73120117 27.72436523 C-1.18464159 31.56316462 -1.30419254 35.38777464 -1.375 39.25 C-1.41238281 40.03890625 -1.44976562 40.8278125 -1.48828125 41.640625 C-1.52219211 43.87120598 -1.49324404 45.82327415 -1 48 C1.35318104 50.4128649 1.35318104 50.4128649 4 52 C4.8125 54.75 4.8125 54.75 5 57 C3.68 57.99 2.36 58.98 1 60 C0.36523438 57.60742188 0.36523438 57.60742188 -0.26953125 55.21484375 C-0.98662743 52.82511429 -0.98662743 52.82511429 -2.546875 50.12109375 C-5.00696373 44.43972968 -4.48425641 38.20138459 -4.4375 32.125 C-4.43427734 30.83827393 -4.43105469 29.55154785 -4.42773438 28.22583008 C-4.28385862 18.35483701 -3.0395671 9.37652173 0 0 Z " fill="#064DAA" transform="translate(4,103)"/>
<path d="M0 0 C0.33 0.66 0.66 1.32 1 2 C3.31 2 5.62 2 8 2 C5.01581599 4.32025548 1.91957832 6.29338116 -1.3125 8.25 C-5.64569036 10.9640062 -8.97263997 13.84027594 -12.44140625 17.55859375 C-14.7047447 19.65175638 -17.03428586 20.32597406 -20 21 C-20.99 21.33 -21.98 21.66 -23 22 C-23.66 20.02 -24.32 18.04 -25 16 C-24.01 16.33 -23.02 16.66 -22 17 C-19.6593935 16.72230092 -17.32375692 16.39460023 -15 16 C-15 15.01 -15 14.02 -15 13 C-15.66 13 -16.32 13 -17 13 C-17 11.35 -17 9.7 -17 8 C-16.12988281 8.14308594 -16.12988281 8.14308594 -15.2421875 8.2890625 C-10.23911581 8.99906937 -6.75977038 9.07477171 -2 7 C-2 6.34 -2 5.68 -2 5 C-1.34 5 -0.68 5 0 5 C0 3.35 0 1.7 0 0 Z " fill="#0F64B6" transform="translate(89,80)"/>
<path d="M0 0 C0 3 0 3 -2 6 C-2.66 6 -3.32 6 -4 6 C-4.268125 6.9075 -4.53625 7.815 -4.8125 8.75 C-6 12 -6 12 -7.625 14.0625 C-9.36976412 16.52103126 -9.0776023 18.05111262 -9 21 C-9.66 21.66 -10.32 22.32 -11 23 C-11.64767793 25.57061311 -11.64767793 25.57061311 -12 28 C-12.99 27.34 -13.98 26.68 -15 26 C-15.33 26.66 -15.66 27.32 -16 28 C-16.66 28 -17.32 28 -18 28 C-18.60830037 23.77495723 -17.92719963 21.46985251 -15.515625 18.08984375 C-14.44161442 16.6944236 -13.35251224 15.31051234 -12.25 13.9375 C-11.71117187 13.24333984 -11.17234375 12.54917969 -10.6171875 11.83398438 C-9.09314703 9.87689338 -7.54800696 7.93814232 -6 6 C-5.25234375 5.03191406 -4.5046875 4.06382813 -3.734375 3.06640625 C-2 1 -2 1 0 0 Z " fill="#0E67CB" transform="translate(35,52)"/>
<path d="M0 0 C-0.36351563 0.42667969 -0.72703125 0.85335937 -1.1015625 1.29296875 C-5.95088294 7.32353391 -8.95627854 13.91956994 -12 21 C-12.99 21 -13.98 21 -15 21 C-15.33 25.29 -15.66 29.58 -16 34 C-18.2870895 29.425821 -18.8198905 26.03374634 -18 21 C-16 18.9375 -16 18.9375 -14 18 C-14.66 16.35 -15.32 14.7 -16 13 C-15.236875 12.855625 -14.47375 12.71125 -13.6875 12.5625 C-9.98267748 10.40853342 -9.88097703 8.10968671 -8.7421875 4.13671875 C-8 2 -8 2 -6.0625 -0.125 C-3.55281386 -1.18971533 -2.54725278 -0.75513548 0 0 Z " fill="#0C59A8" transform="translate(74,100)"/>
<path d="M0 0 C1.32 0.33 2.64 0.66 4 1 C4.33 2.32 4.66 3.64 5 5 C5.66 5 6.32 5 7 5 C8 6 9 7 10 8 C10.66 8 11.32 8 12 8 C13.61341433 9.97294956 15.01831805 12.05469651 16.46484375 14.15234375 C17.95699606 16.27877271 17.95699606 16.27877271 21 17 C21.33 19.64 21.66 22.28 22 25 C23.98 25 25.96 25 28 25 C27.67 25.99 27.34 26.98 27 28 C22.8046201 27.8343929 21.32421793 27.33620824 18.359375 24.26171875 C17.47352483 23.08220365 16.60445961 21.88994965 15.75 20.6875 C14.80262936 19.41528836 13.85336869 18.14448224 12.90234375 16.875 C12.42522949 16.23046875 11.94811523 15.5859375 11.45654297 14.921875 C9.18169968 11.92027152 6.75266917 9.05509577 4.3125 6.1875 C0 1.11041991 0 1.11041991 0 0 Z " fill="#40A53D" transform="translate(42,233)"/>
<path d="M0 0 C0.99 0.33 1.98 0.66 3 1 C2.34 1.66 1.68 2.32 1 3 C0.01 3 -0.98 3 -2 3 C-2.33 3.99 -2.66 4.98 -3 6 C-7.455 6.495 -7.455 6.495 -12 7 C-12.144375 7.763125 -12.28875 8.52625 -12.4375 9.3125 C-14.60923108 13.04787745 -17.0782752 13.37092715 -21.1015625 14.51953125 C-21.72804688 14.67808594 -22.35453125 14.83664063 -23 15 C-23.33 13.68 -23.66 12.36 -24 11 C-22.35 10.34 -20.7 9.68 -19 9 C-19 8.34 -19 7.68 -19 7 C-17.79601562 6.57847656 -16.59203125 6.15695313 -15.3515625 5.72265625 C-13.77601743 5.16933983 -12.20049792 4.61595064 -10.625 4.0625 C-9.43390625 3.64581055 -9.43390625 3.64581055 -8.21875 3.22070312 C-7.45820312 2.95322266 -6.69765625 2.68574219 -5.9140625 2.41015625 C-4.8614624 2.04096069 -4.8614624 2.04096069 -3.78759766 1.66430664 C-1.93494905 1.01232236 -1.93494905 1.01232236 0 0 Z " fill="#179FF2" transform="translate(94,17)"/>
<path d="M0 0 C2.1875 0.3125 2.1875 0.3125 4 1 C0.35930959 4.21068761 -3.66685811 5.48313135 -8.1875 7 C-8.94764404 7.25910156 -9.70778809 7.51820313 -10.4909668 7.78515625 C-11.98894578 8.29532473 -13.48770327 8.80321418 -14.98730469 9.30859375 C-16.66116601 9.88360288 -18.32099233 10.49927269 -19.9765625 11.125 C-22.3125 12 -22.3125 12 -26 13 C-26.58652344 12.70351562 -27.17304688 12.40703125 -27.77734375 12.1015625 C-30.90890209 10.54954237 -33.77785746 10.56789681 -37.25 10.375 C-38.51328125 10.30023438 -39.7765625 10.22546875 -41.078125 10.1484375 C-42.04234375 10.09945312 -43.0065625 10.05046875 -44 10 C-44 9.67 -44 9.34 -44 9 C-37.61863978 7.88497738 -31.48584809 7.98017456 -25.02734375 8.21484375 C-18.12755692 8.33666984 -13.80408217 6.86938812 -8 3 C-6.7625 3.0309375 -6.7625 3.0309375 -5.5 3.0625 C-2.92655014 3.28551564 -2.92655014 3.28551564 -1.4375 1.4375 C-0.963125 0.963125 -0.48875 0.48875 0 0 Z " fill="#75CE47" transform="translate(210,210)"/>
<path d="M0 0 C1.9375 0.3125 1.9375 0.3125 4 1 C4.33 1.99 4.66 2.98 5 4 C7.01508358 4.73323796 7.01508358 4.73323796 9 5 C8.67 6.32 8.34 7.64 8 9 C8.66 9 9.32 9 10 9 C11.125 14.75 11.125 14.75 10 17 C8.35 16.67 6.7 16.34 5 16 C5.20625 16.598125 5.4125 17.19625 5.625 17.8125 C6 20 6 20 4 23 C3.34 23 2.68 23 2 23 C2.165 21.906875 2.33 20.81375 2.5 19.6875 C2.9218382 16.20733487 3.15591343 12.75472457 3.25 9.25 C3.27578125 8.34765625 3.3015625 7.4453125 3.328125 6.515625 C2.94171487 3.55314734 1.95955809 2.20708122 0 0 Z " fill="#4DAC43" transform="translate(206,133)"/>
<path d="M0 0 C5.46663236 1.27130985 7.91436914 3.32747327 11 8 C11.8125 11.875 11.8125 11.875 12 15 C12.99 15.33 13.98 15.66 15 16 C15 16.66 15 17.32 15 18 C12.33333333 17.33333333 9.66666667 16.66666667 7 16 C7.2475 15.4225 7.495 14.845 7.75 14.25 C7.8325 13.5075 7.915 12.765 8 12 C6.14567913 9.72855926 6.14567913 9.72855926 4 8 C4.33 7.34 4.66 6.68 5 6 C4.34 6 3.68 6 3 6 C3 6.66 3 7.32 3 8 C2.01 7.67 1.02 7.34 0 7 C-0.38133299 5.0085944 -0.71325582 3.00720923 -1 1 C-0.67 0.67 -0.34 0.34 0 0 Z " fill="#38D7F4" transform="translate(225,46)"/>
<path d="M0 0 C0.33 0.66 0.66 1.32 1 2 C-2.69158511 6.02718375 -6.21180156 8.38004236 -11 11 C-11.66 11.66 -12.32 12.32 -13 13 C-15 14 -17 15 -19 16 C-20.051875 16.70125 -21.10375 17.4025 -22.1875 18.125 C-25 20 -25 20 -28 21 C-28.66 20.34 -29.32 19.68 -30 19 C-28.68 18.67 -27.36 18.34 -26 18 C-26 17.34 -26 16.68 -26 16 C-23.77312024 14.70425129 -21.54366825 13.41332692 -19.3125 12.125 C-18.68666016 11.76019531 -18.06082031 11.39539063 -17.41601562 11.01953125 C-14.01805058 9.06258803 -10.69932381 7.34392261 -7 6 C-7 5.34 -7 4.68 -7 4 C-4.69 2.68 -2.38 1.36 0 0 Z " fill="#44A82F" transform="translate(244,193)"/>
<path d="M0 0 C0.74617584 0.00141495 1.49235168 0.0028299 2.26113892 0.00428772 C4.62465568 0.00984751 6.98807477 0.02239236 9.3515625 0.03515625 C10.96223821 0.04017645 12.57291541 0.04473845 14.18359375 0.04882812 C18.11462049 0.05980374 22.04557498 0.07704029 25.9765625 0.09765625 C25.9765625 0.42765625 25.9765625 0.75765625 25.9765625 1.09765625 C25.24131348 1.15300537 24.50606445 1.20835449 23.74853516 1.26538086 C20.36611528 1.520723 16.98383944 1.77792807 13.6015625 2.03515625 C12.44527344 2.12216797 11.28898437 2.20917969 10.09765625 2.29882812 C4.0799144 2.75780844 -1.92481345 3.25821278 -7.92431641 3.91625977 C-9.95070366 4.09137092 -11.98949817 4.09765625 -14.0234375 4.09765625 C-14.0234375 3.10765625 -14.0234375 2.11765625 -14.0234375 1.09765625 C-9.32140736 0.16818518 -4.77531515 -0.03458026 0 0 Z " fill="#37AADA" transform="translate(124.0234375,10.90234375)"/>
<path d="M0 0 C0.99 0.33 1.98 0.66 3 1 C2.67 1.66 2.34 2.32 2 3 C2.495 3.495 2.495 3.495 3 4 C2.34 4.33 1.68 4.66 1 5 C1 5.66 1 6.32 1 7 C-3.63104563 7.91045727 -8.10177427 8.13279048 -12.8046875 8.09765625 C-13.5286673 8.0962413 -14.25264709 8.09482635 -14.99856567 8.09336853 C-17.29075407 8.08781075 -19.58284157 8.07526633 -21.875 8.0625 C-23.43749858 8.05747953 -24.99999871 8.05291759 -26.5625 8.04882812 C-30.37503835 8.03785519 -34.18750212 8.0206201 -38 8 C-38 7.67 -38 7.34 -38 7 C-37.3608667 6.98018066 -36.7217334 6.96036133 -36.06323242 6.93994141 C-33.10431367 6.84336503 -30.14597741 6.73423609 -27.1875 6.625 C-26.18267578 6.5940625 -25.17785156 6.563125 -24.14257812 6.53125 C-16.2763173 6.22772868 -8.50388915 5.50129638 -1 3 C-0.67 2.01 -0.34 1.02 0 0 Z " fill="#339338" transform="translate(165,257)"/>
<path d="M0 0 C0.66 0 1.32 0 2 0 C1.78601562 1.15757813 1.57203125 2.31515625 1.3515625 3.5078125 C1.10760901 5.04659606 0.86551939 6.58567593 0.625 8.125 C0.47933594 8.88554687 0.33367188 9.64609375 0.18359375 10.4296875 C-0.52814711 14.85366957 -0.52814711 14.85366957 1.29980469 18.75292969 C2.92144625 20.31866135 2.92144625 20.31866135 4.66552734 21.60888672 C6 23 6 23 6 27 C6.99 27.33 7.98 27.66 9 28 C9 28.66 9 29.32 9 30 C8.01 30 7.02 30 6 30 C6 29.34 6 28.68 6 28 C5.01 27.67 4.02 27.34 3 27 C3 26.01 3 25.02 3 24 C1.68 24.33 0.36 24.66 -1 25 C-3.13586678 21.79619983 -3.23132175 20.98060033 -3.125 17.3125 C-3.10695312 16.50425781 -3.08890625 15.69601563 -3.0703125 14.86328125 C-3.04710937 14.24839844 -3.02390625 13.63351563 -3 13 C-2.34 13 -1.68 13 -1 13 C-0.67 8.71 -0.34 4.42 0 0 Z " fill="#0A3F90" transform="translate(59,121)"/>
<path d="M0 0 C-0.6338479 5.517155 -2.50564309 10.26747809 -4.5625 15.375 C-4.89185547 16.20644531 -5.22121094 17.03789062 -5.56054688 17.89453125 C-6.36844762 19.93184618 -7.1817011 21.96684442 -8 24 C-8.98824339 20.5571603 -8.87307725 18.92340255 -7.5625 15.5625 C-6.35247273 12.22942489 -5.65248213 9.591018 -6 6 C-7.32 5.34 -8.64 4.68 -10 4 C-10 3.34 -10 2.68 -10 2 C-8.7090864 1.66376204 -7.41723903 1.33110751 -6.125 1 C-5.40570313 0.814375 -4.68640625 0.62875 -3.9453125 0.4375 C-2 0 -2 0 0 0 Z " fill="#83CA5E" transform="translate(126,172)"/>
<path d="M0 0 C3.99026656 3.88662327 7.6812995 7.96507123 11.3125 12.1875 C12.13717773 13.13012695 12.13717773 13.13012695 12.97851562 14.09179688 C17 18.76271351 17 18.76271351 17 21 C16.01 20.67 15.02 20.34 14 20 C12.8125 17.4375 12.8125 17.4375 12 15 C9.69 14.67 7.38 14.34 5 14 C4.26919734 12.02253397 3.60578253 10.01927511 3 8 C3.33 7.34 3.66 6.68 4 6 C2.35 6 0.7 6 -1 6 C-1.33 5.01 -1.66 4.02 -2 3 C-1.34 2.01 -0.68 1.02 0 0 Z " fill="#41CFEC" transform="translate(191,0)"/>
<path d="M0 0 C0.66 0.66 1.32 1.32 2 2 C4.58354218 2.16687448 4.58354218 2.16687448 7 2 C7 2.66 7 3.32 7 4 C7.99 4.33 8.98 4.66 10 5 C9.34 5 8.68 5 8 5 C8 5.99 8 6.98 8 8 C7.30132812 7.98839844 6.60265625 7.97679688 5.8828125 7.96484375 C4.97273437 7.95582031 4.06265625 7.94679688 3.125 7.9375 C2.22007812 7.92589844 1.31515625 7.91429688 0.3828125 7.90234375 C-2.0168585 7.83750743 -2.0168585 7.83750743 -4 9 C-4.66 8.34 -5.32 7.68 -6 7 C-6 6.01 -6 5.02 -6 4 C-5.34 4 -4.68 4 -4 4 C-4 3.01 -4 2.02 -4 1 C-2 0 -2 0 0 0 Z " fill="#10A4ED" transform="translate(152,94)"/>
<path d="M0 0 C0.66 0.33 1.32 0.66 2 1 C1.01 2.32 0.02 3.64 -1 5 C0.65 4.67 2.3 4.34 4 4 C3.67 5.32 3.34 6.64 3 8 C0.69 8.66 -1.62 9.32 -4 10 C-4.33 9.67 -4.66 9.34 -5 9 C-5.515625 9.61875 -6.03125 10.2375 -6.5625 10.875 C-9.54458615 13.47476742 -12.18446201 14.11949123 -16 15 C-12.49441279 11.44314278 -8.89446761 8.03716953 -5.1875 4.6875 C-4.21167969 3.80449219 -3.23585937 2.92148438 -2.23046875 2.01171875 C-1.49441406 1.34785156 -0.75835937 0.68398437 0 0 Z " fill="#379138" transform="translate(252,93)"/>
<path d="M0 0 C0.66 0 1.32 0 2 0 C2.66 1.32 3.32 2.64 4 4 C4.99 3.67 5.98 3.34 7 3 C9.06878307 7.38095238 9.06878307 7.38095238 8.75 10.25 C8 12 8 12 6 13 C1.8910744 11.63035813 0.99557524 9.77733885 -1 6 C-0.75 2.625 -0.75 2.625 0 0 Z " fill="#56B93F" transform="translate(38,221)"/>
<path d="M0 0 C2.43906873 3.6586031 3.15268684 7.27118153 4.0625 11.5 C4.2387793 12.30356934 4.41505859 13.10713867 4.59667969 13.93505859 C5.87034453 19.93139562 6.7298675 25.86799232 7 32 C5.35 31.67 3.7 31.34 2 31 C2.33 30.34 2.66 29.68 3 29 C3.55186083 22.19725402 3.14103193 16.46429326 0.66796875 10.11328125 C-0.41445838 6.68876034 -0.19438871 3.56379311 0 0 Z " fill="#57A74A" transform="translate(263,102)"/>
<path d="M0 0 C1.20245361 0.18236206 1.20245361 0.18236206 2.42919922 0.3684082 C4.47399649 0.72316243 6.49159862 1.22715171 8.5 1.75 C9.49 3.235 9.49 3.235 10.5 4.75 C9.984375 4.585 9.46875 4.42 8.9375 4.25 C6.37388662 3.63906209 6.37388662 3.63906209 3.1875 3.75 C-1.22582121 3.75 -5.43403645 3.3402753 -9.6875 2.125 C-11.54754838 1.58723178 -11.54754838 1.58723178 -13.5 2.375 C-14.49 2.560625 -14.49 2.560625 -15.5 2.75 C-17.625 1.2734375 -17.625 1.2734375 -19.5 -0.25 C-12.70419185 -1.4557079 -6.7591706 -1.08353629 0 0 Z " fill="#32C5EA" transform="translate(160.5,12.25)"/>
<path d="M0 0 C0.66 0 1.32 0 2 0 C2.33 1.32 2.66 2.64 3 4 C5.31 4.33 7.62 4.66 10 5 C11.08427519 9.45757577 10.44360116 11.66919651 9 16 C7.70462174 14.2527456 6.41383727 12.50208483 5.125 10.75 C4.40570312 9.77546875 3.68640625 8.8009375 2.9453125 7.796875 C1.39017775 5.56097846 0.11795777 3.47127507 -1 1 C-0.67 0.67 -0.34 0.34 0 0 Z " fill="#67BB48" transform="translate(21,201)"/>
<path d="M0 0 C1.65 0 3.3 0 5 0 C5 0.99 5 1.98 5 3 C4.34 3 3.68 3 3 3 C2.67 3.99 2.34 4.98 2 6 C-1.96 6 -5.92 6 -10 6 C-9.34 4.35 -8.68 2.7 -8 1 C-2.25 0.875 -2.25 0.875 0 2 C0 1.34 0 0.68 0 0 Z " fill="#10A7E7" transform="translate(189,88)"/>
<path d="M0 0 C1.98 0 3.96 0 6 0 C6 0.66 6 1.32 6 2 C5.34 2 4.68 2 4 2 C3.67 2.99 3.34 3.98 3 5 C2.01 6.485 2.01 6.485 1 8 C2.32 8.66 3.64 9.32 5 10 C-0.75 14 -0.75 14 -3 14 C-2.67 11.36 -2.34 8.72 -2 6 C-1.67 6 -1.34 6 -1 6 C-0.67 4.02 -0.34 2.04 0 0 Z " fill="#32D4FA" transform="translate(189,6)"/>
<path d="M0 0 C6.30968026 6.11250275 12.38188223 12.49555863 17 20 C16.01 20.33 15.02 20.66 14 21 C11 17.375 11 17.375 11 14 C10.34 14 9.68 14 9 14 C7.62689293 12.70766393 6.28965176 11.37562854 5 10 C4.67 10.66 4.34 11.32 4 12 C3.896875 11.278125 3.79375 10.55625 3.6875 9.8125 C2.93970722 6.75334771 1.65222195 4.65792227 0 2 C0 1.34 0 0.68 0 0 Z " fill="#49CEE8" transform="translate(213,27)"/>
<path d="M0 0 C1.32 0 2.64 0 4 0 C4 0.66 4 1.32 4 2 C4.763125 2.28875 5.52625 2.5775 6.3125 2.875 C9 4 9 4 12 6 C8.04 6.99 4.08 7.98 0 9 C0.33 7.68 0.66 6.36 1 5 C0.61432869 2.31850007 0.61432869 2.31850007 0 0 Z " fill="#24CDF4" transform="translate(232,70)"/>
<path d="M0 0 C-0.99 0.495 -0.99 0.495 -2 1 C-2.46523063 2.89533342 -2.46523063 2.89533342 -2.625 5.0625 C-2.74875 6.361875 -2.8725 7.66125 -3 9 C-5.97 8.67 -8.94 8.34 -12 8 C-9.83199867 1.31532922 -6.98981916 -0.47657858 0 0 Z " fill="#1B8FEA" transform="translate(66,31)"/>
<path d="M0 0 C-0.60328125 0.26554687 -1.2065625 0.53109375 -1.828125 0.8046875 C-2.62734375 1.15789062 -3.4265625 1.51109375 -4.25 1.875 C-5.03890625 2.22304687 -5.8278125 2.57109375 -6.640625 2.9296875 C-8.78868608 3.90413905 -10.89829202 4.92986429 -13 6 C-11.35 6 -9.7 6 -8 6 C-8 8.31 -8 10.62 -8 13 C-11.98175544 10.89851796 -14.35039045 8.63094642 -17 5 C-2.90487239 -1.45243619 -2.90487239 -1.45243619 0 0 Z " fill="#3F8E41" transform="translate(214,120)"/>
<path d="M0 0 C-0.125 1.75 -0.125 1.75 -1 4 C-2.010625 4.66 -3.02125 5.32 -4.0625 6 C-5.5165625 6.99 -5.5165625 6.99 -7 8 C-7 9.32 -7 10.64 -7 12 C-7 12.66 -7 13.32 -7 14 C-8.32 13.67 -9.64 13.34 -11 13 C-11 12.34 -11 11.68 -11 11 C-11.66 10.67 -12.32 10.34 -13 10 C-12.34 10 -11.68 10 -11 10 C-10.91621094 9.40703125 -10.83242187 8.8140625 -10.74609375 8.203125 C-9.7816209 5.35515282 -8.48602461 4.48547151 -6.0625 2.75 C-5.35222656 2.22921875 -4.64195312 1.7084375 -3.91015625 1.171875 C-2 0 -2 0 0 0 Z " fill="#70BE50" transform="translate(198,178)"/>
<path d="M0 0 C0.66 0.33 1.32 0.66 2 1 C-0.02285879 3.02285879 -2.041597 5.03915012 -4.125 7 C-5.93237858 8.92787048 -6.96574684 10.58674262 -8 13 C-8.33 12.34 -8.66 11.68 -9 11 C-11.31 12.98 -13.62 14.96 -16 17 C-16.66 16.67 -17.32 16.34 -18 16 C-12.33998772 10.13121677 -6.73304432 4.62661705 0 0 Z " fill="#227ED0" transform="translate(54,35)"/>
<path d="M0 0 C0 3 0 3 -2 6 C-2.66 6 -3.32 6 -4 6 C-4.3403125 7.36125 -4.3403125 7.36125 -4.6875 8.75 C-6.20002433 12.49529834 -7.78228882 13.66715939 -11 16 C-11.66 16.99 -12.32 17.98 -13 19 C-13 14.31274355 -12.2232214 13.55428963 -9.3125 10.0625 C-8.58675781 9.18980469 -7.86101563 8.31710938 -7.11328125 7.41796875 C-4.83756323 4.81414351 -2.52166553 2.36406144 0 0 Z " fill="#1B69C6" transform="translate(35,52)"/>
<path d="M0 0 C5.1711115 4.54431011 8.44663108 10.15281368 12 16 C11.38125 15.649375 10.7625 15.29875 10.125 14.9375 C9.42375 14.628125 8.7225 14.31875 8 14 C7.01 14.495 7.01 14.495 6 15 C5.34 14.67 4.68 14.34 4 14 C3.6088062 11.93734178 3.49325481 9.90556733 3.34375 7.8125 C3.2303125 7.214375 3.116875 6.61625 3 6 C2.34 5.67 1.68 5.34 1 5 C0.375 2.4375 0.375 2.4375 0 0 Z " fill="#48D3E8" transform="translate(236,56)"/>
<path d="M0 0 C-6.58691741 4.54810964 -11.94170027 7.30531899 -20 8 C-19 5 -19 5 -17.35766602 4.09277344 C-16.31630493 3.72974121 -16.31630493 3.72974121 -15.25390625 3.359375 C-14.12178711 2.96105469 -14.12178711 2.96105469 -12.96679688 2.5546875 C-12.17337891 2.28914062 -11.37996094 2.02359375 -10.5625 1.75 C-9.77294922 1.46898437 -8.98339844 1.18796875 -8.16992188 0.8984375 C-2.26833039 -1.13416519 -2.26833039 -1.13416519 0 0 Z " fill="#4AAD31" transform="translate(212,214)"/>
<path d="M0 0 C0.33 0 0.66 0 1 0 C1.14480591 5.0682068 0.85098258 8.72352613 -2 13 C-2.33 13.66 -2.66 14.32 -3 15 C-5.0625 15.625 -5.0625 15.625 -7 16 C-5.26017005 10.18738629 -3.1889511 5.16830006 0 0 Z " fill="#0C5DC2" transform="translate(16,76)"/>
<path d="M0 0 C0 1.32 0 2.64 0 4 C-3.33045394 6.66436316 -5.7774565 7.3619323 -10 7 C-9.67 5.35 -9.34 3.7 -9 2 C-3.375 0 -3.375 0 0 0 Z " fill="#073B90" transform="translate(43,160)"/>
<path d="M0 0 C0 1.98 0 3.96 0 6 C-0.99 6.495 -0.99 6.495 -2 7 C-2.99 6.67 -3.98 6.34 -5 6 C-5.33 6.99 -5.66 7.98 -6 9 C-6 7.02 -6 5.04 -6 3 C-6.66 2.67 -7.32 2.34 -8 2 C-4.91190305 0.23537317 -3.76687864 0 0 0 Z " fill="#0761D4" transform="translate(16,90)"/>
<path d="M0 0 C2.1875 0.3125 2.1875 0.3125 4 1 C0.53955845 4.02788635 -3.52249221 5.98556464 -8 7 C-10.25 6.578125 -10.25 6.578125 -12 6 C-8.8153553 3.16920471 -7.14920571 3 -3 3 C-2.484375 2.484375 -1.96875 1.96875 -1.4375 1.4375 C-0.963125 0.963125 -0.48875 0.48875 0 0 Z " fill="#81D851" transform="translate(210,210)"/>
<path d="M0 0 C6.93 0.495 6.93 0.495 14 1 C14 1.33 14 1.66 14 2 C13.36191406 2.12117187 12.72382813 2.24234375 12.06640625 2.3671875 C10.82697266 2.61855469 10.82697266 2.61855469 9.5625 2.875 C8.73878906 3.03742188 7.91507813 3.19984375 7.06640625 3.3671875 C6.38449219 3.57601562 5.70257813 3.78484375 5 4 C4.67 4.66 4.34 5.32 4 6 C3.34 5.67 2.68 5.34 2 5 C2 4.01 2 3.02 2 2 C1.01 2.33 0.02 2.66 -1 3 C-0.67 2.01 -0.34 1.02 0 0 Z " fill="#7AD241" transform="translate(130,202)"/>
<path d="M0 0 C0 2 0 2 -1.375 3.625 C-3 5 -3 5 -5 5 C-5 5.66 -5 6.32 -5 7 C-5.99 7 -6.98 7 -8 7 C-8 6.34 -8 5.68 -8 5 C-8.99 5 -9.98 5 -11 5 C-11 4.34 -11 3.68 -11 3 C-9.54293274 2.49632243 -8.08429904 1.99717444 -6.625 1.5 C-5.81289063 1.2215625 -5.00078125 0.943125 -4.1640625 0.65625 C-2 0 -2 0 0 0 Z " fill="#75C44A" transform="translate(47,193)"/>
<path d="M0 0 C-3.18900456 2.12600304 -5.90414569 3.02136239 -9.5625 4.125 C-11.29693359 4.65480469 -11.29693359 4.65480469 -13.06640625 5.1953125 C-16 6 -16 6 -18 6 C-18 5.34 -18 4.68 -18 4 C-12.37671085 -0.13477143 -6.77605421 -0.13552108 0 0 Z " fill="#33ADDB" transform="translate(210,87)"/>
<path d="M0 0 C0.33 0.66 0.66 1.32 1 2 C3.31 2 5.62 2 8 2 C5.42104551 4.0416723 2.73194109 5.9202111 0 7.75 C-0.66 8.19859375 -1.32 8.6471875 -2 9.109375 C-4.44185991 10.19676574 -5.53654637 9.90179999 -8 9 C-6.02 8.34 -4.04 7.68 -2 7 C-2 6.34 -2 5.68 -2 5 C-1.34 5 -0.68 5 0 5 C0 3.35 0 1.7 0 0 Z " fill="#1A74BD" transform="translate(89,80)"/>
<path d="M0 0 C0.061875 0.61875 0.12375 1.2375 0.1875 1.875 C0.828919 4.27761141 0.828919 4.27761141 3.5625 5.25 C4.366875 5.4975 5.17125 5.745 6 6 C6 6.33 6 6.66 6 7 C2.04 6.67 -1.92 6.34 -6 6 C-6.33 5.01 -6.66 4.02 -7 3 C-4.69 2.01 -2.38 1.02 0 0 Z " fill="#36A538" transform="translate(110,256)"/>
<path d="M0 0 C3 1 3 1 4.16796875 2.99609375 C4.50441406 3.80175781 4.84085937 4.60742188 5.1875 5.4375 C5.53167969 6.24058594 5.87585938 7.04367188 6.23046875 7.87109375 C7 10 7 10 7 12 C6.01 11.67 5.02 11.34 4 11 C2.85773284 8.71546567 1.93746527 6.37491201 1 4 C0.34 4 -0.32 4 -1 4 C-0.67 2.68 -0.34 1.36 0 0 Z " fill="#419442" transform="translate(256,90)"/>
<path d="M0 0 C0.61875 0.804375 1.2375 1.60875 1.875 2.4375 C3.74164041 5.03874519 3.74164041 5.03874519 6 6 C5.67 6.99 5.34 7.98 5 9 C4.01 9 3.02 9 2 9 C2 8.34 2 7.68 2 7 C0.68 7.33 -0.64 7.66 -2 8 C-1.125 1.125 -1.125 1.125 0 0 Z " fill="#32D9F8" transform="translate(202,15)"/>
<path d="M0 0 C0.33 0.99 0.66 1.98 1 3 C-0.57871821 5.20430375 -2.14761637 7.16942403 -3.9375 9.1875 C-4.41896484 9.74630859 -4.90042969 10.30511719 -5.39648438 10.88085938 C-6.58857598 12.26179717 -7.79314375 13.63194679 -9 15 C-10 12 -10 12 -9 9 C-8.175 8.690625 -7.35 8.38125 -6.5 8.0625 C-5.675 7.711875 -4.85 7.36125 -4 7 C-3.32843384 5.06381575 -3.32843384 5.06381575 -3 3 C-1.4375 1.25 -1.4375 1.25 0 0 Z " fill="#6BCB46" transform="translate(255,176)"/>
<path d="M0 0 C0.33 0.99 0.66 1.98 1 3 C0.34 3 -0.32 3 -1 3 C-1.33 7.29 -1.66 11.58 -2 16 C-4.2870895 11.425821 -4.8198905 8.03374634 -4 3 C-2 0.9375 -2 0.9375 0 0 Z " fill="#034EA6" transform="translate(60,118)"/>
<path d="M0 0 C1.32 0.33 2.64 0.66 4 1 C4.33 2.32 4.66 3.64 5 5 C5.66 5 6.32 5 7 5 C9.12153042 6.85633912 10.41328692 8.61993038 12 11 C11.67 11.99 11.34 12.98 11 14 C6.95834187 9.52692892 3.19826985 5.11723176 0 0 Z " fill="#4FA246" transform="translate(42,233)"/>
<path d="M0 0 C0 0.99 0 1.98 0 3 C-0.66 3.66 -1.32 4.32 -2 5 C-1.34 6.32 -0.68 7.64 0 9 C-1.8125 9.625 -1.8125 9.625 -4 10 C-4.99 9.34 -5.98 8.68 -7 8 C-7 7.34 -7 6.68 -7 6 C-5.46875 4.4921875 -5.46875 4.4921875 -3.5 2.875 C-2.8503125 2.33617187 -2.200625 1.79734375 -1.53125 1.2421875 C-1.0259375 0.83226562 -0.520625 0.42234375 0 0 Z " fill="#137EE8" transform="translate(43,46)"/>
<path d="M0 0 C-0.33 0.99 -0.66 1.98 -1 3 C-1.66 3 -2.32 3 -3 3 C-3.33 3.99 -3.66 4.98 -4 6 C-4.33 5.34 -4.66 4.68 -5 4 C-5.99 4.33 -6.98 4.66 -8 5 C-8.99 4.01 -9.98 3.02 -11 2 C-7.36576791 -0.32590854 -4.22911669 -0.16265833 0 0 Z " fill="#7AD242" transform="translate(80,185)"/>
<path d="M0 0 C-6.23836843 4.03659134 -10.60019424 5.47996115 -18 4 C-14.89576443 2.31945639 -11.83501066 1.26010501 -8.4375 0.3125 C-7.48746094 0.04050781 -6.53742188 -0.23148438 -5.55859375 -0.51171875 C-3 -1 -3 -1 0 0 Z " fill="#87C558" transform="translate(91,181)"/>
<path d="M0 0 C3.5991308 5.3986962 4.26122419 10.6000073 4 17 C3.34 16.67 2.68 16.34 2 16 C0.25548659 10.47570753 -0.20612487 5.77149626 0 0 Z " fill="#449B41" transform="translate(263,102)"/>
<path d="M0 0 C0 0.66 0 1.32 0 2 C-0.639375 2.28875 -1.27875 2.5775 -1.9375 2.875 C-4.15206079 3.82823451 -4.15206079 3.82823451 -5 6 C-5.66 6 -6.32 6 -7 6 C-7.33 6.66 -7.66 7.32 -8 8 C-9.65 7.67 -11.3 7.34 -13 7 C-4.79310345 0 -4.79310345 0 0 0 Z " fill="#258EDA" transform="translate(75,24)"/>
<path d="M0 0 C0.99 0 1.98 0 3 0 C3.33 0.99 3.66 1.98 4 3 C4.66 3.33 5.32 3.66 6 4 C5.67 5.65 5.34 7.3 5 9 C4.34 9 3.68 9 3 9 C0.56839395 5.63316085 0 4.26649636 0 0 Z " fill="#043C9D" transform="translate(9,176)"/>
<path d="M0 0 C2.3125 0.8125 2.3125 0.8125 4 2 C3.360625 2.268125 2.72125 2.53625 2.0625 2.8125 C-0.33131686 3.88667752 -0.33131686 3.88667752 -1 7 C-1.99 7.33 -2.98 7.66 -4 8 C-4.33 6.35 -4.66 4.7 -5 3 C-2.75 1.375 -2.75 1.375 0 0 Z " fill="#33A037" transform="translate(229,224)"/>
<path d="M0 0 C-2.12282669 1.00460531 -4.24833021 2.00355602 -6.375 3 C-8.15003906 3.8353125 -8.15003906 3.8353125 -9.9609375 4.6875 C-13 6 -13 6 -15 6 C-14 3 -14 3 -11.6015625 1.796875 C-10.61929688 1.45140625 -9.63703125 1.1059375 -8.625 0.75 C-7.64789063 0.39421875 -6.67078125 0.0384375 -5.6640625 -0.328125 C-3 -1 -3 -1 0 0 Z " fill="#0A357B" transform="translate(58,157)"/>
<path d="M0 0 C0.66 0 1.32 0 2 0 C2 2.64 2 5.28 2 8 C0.35 8.33 -1.3 8.66 -3 9 C-2.01 6.03 -1.02 3.06 0 0 Z " fill="#0F5EBB" transform="translate(8,93)"/>
<path d="M0 0 C0.99 0.33 1.98 0.66 3 1 C2.67 1.66 2.34 2.32 2 3 C2.33 3.33 2.66 3.66 3 4 C1 6 1 6 -1.3828125 6.1953125 C-2.28773438 6.17210937 -3.19265625 6.14890625 -4.125 6.125 C-5.49011719 6.09792969 -5.49011719 6.09792969 -6.8828125 6.0703125 C-7.58148438 6.04710937 -8.28015625 6.02390625 -9 6 C-9 5.67 -9 5.34 -9 5 C-8.43410156 4.89042969 -7.86820313 4.78085937 -7.28515625 4.66796875 C-6.18494141 4.43013672 -6.18494141 4.43013672 -5.0625 4.1875 C-4.33160156 4.03667969 -3.60070312 3.88585937 -2.84765625 3.73046875 C-2.23792969 3.48941406 -1.62820312 3.24835938 -1 3 C-0.67 2.01 -0.34 1.02 0 0 Z " fill="#299A31" transform="translate(165,257)"/>
<path d="M0 0 C2 2 2 2 2.1953125 5.2578125 C2.17210937 6.53398437 2.14890625 7.81015625 2.125 9.125 C2.10695313 10.40632812 2.08890625 11.68765625 2.0703125 13.0078125 C2.04710937 13.99523437 2.02390625 14.98265625 2 16 C-0.30925485 13.55420823 -0.99001814 12.40557866 -1.07421875 8.984375 C-0.94660156 7.91703125 -0.81898438 6.8496875 -0.6875 5.75 C-0.56761719 4.67234375 -0.44773437 3.5946875 -0.32421875 2.484375 C-0.21722656 1.66453125 -0.11023438 0.8446875 0 0 Z " fill="#5AAF44" transform="translate(268,135)"/>
<path d="M0 0 C0.33 0.99 0.66 1.98 1 3 C1.66 3.33 2.32 3.66 3 4 C2.67 4.66 2.34 5.32 2 6 C-0.64860427 6.59355614 -3.29197322 6.74209269 -6 7 C-5.8125 5.1875 -5.8125 5.1875 -5 3 C-2.4375 1.25 -2.4375 1.25 0 0 Z " fill="#369F33" transform="translate(260,98)"/>
<path d="M0 0 C0.66 0.33 1.32 0.66 2 1 C2.3125 3.3125 2.3125 3.3125 2 6 C-0.375 7.875 -0.375 7.875 -3 9 C-3.66 8.67 -4.32 8.34 -5 8 C-3.8141763 4.62496331 -2.72426311 2.35277269 0 0 Z " fill="#086FDF" transform="translate(24,67)"/>
<path d="M0 0 C2.64 0.33 5.28 0.66 8 1 C7 4 7 4 5 6 C2.375 5.625 2.375 5.625 0 5 C0 3.35 0 1.7 0 0 Z " fill="#0770CD" transform="translate(72,88)"/>
<path d="M0 0 C0.61875 0.78375 1.2375 1.5675 1.875 2.375 C3.89858661 4.96837647 3.89858661 4.96837647 6 7 C6 7.99 6 8.98 6 10 C4.125 9.875 4.125 9.875 2 9 C0.61849799 5.82254537 0 3.46877176 0 0 Z " fill="#45B13B" transform="translate(53,241)"/>
<path d="M0 0 C-0.99 2.97 -1.98 5.94 -3 9 C-3.33 9 -3.66 9 -4 9 C-4.309375 8.05125 -4.61875 7.1025 -4.9375 6.125 C-5.87394742 3.13919592 -5.87394742 3.13919592 -7 1 C-4 0 -4 0 0 0 Z " fill="#0A529F" transform="translate(65,112)"/>
<path d="M0 0 C0.66 0.33 1.32 0.66 2 1 C-1.96 3.64 -5.92 6.28 -10 9 C-10.33 8.34 -10.66 7.68 -11 7 C-7.71103088 3.18479582 -4.67184669 1.64379791 0 0 Z " fill="#388840" transform="translate(219,238)"/>
<path d="M0 0 C1 3 1 3 0.00390625 5.04296875 C-0.47175781 5.75066406 -0.94742187 6.45835937 -1.4375 7.1875 C-1.91058594 7.90292969 -2.38367188 8.61835938 -2.87109375 9.35546875 C-3.24363281 9.89816406 -3.61617188 10.44085938 -4 11 C-5.125 7.25 -5.125 7.25 -4 5 C-3.34 5 -2.68 5 -2 5 C-2 3.68 -2 2.36 -2 1 C-1.34 0.67 -0.68 0.34 0 0 Z " fill="#67C744" transform="translate(262,163)"/>
<path d="M0 0 C1.32 0.33 2.64 0.66 4 1 C4 2.65 4 4.3 4 6 C3.01 6.495 3.01 6.495 2 7 C1.34 8.32 0.68 9.64 0 11 C0 7.37 0 3.74 0 0 Z " fill="#40A836" transform="translate(211,137)"/>
<path d="M0 0 C2.23915424 0.73602403 2.23915424 0.73602403 5.0625 -0.5 C5.0625 0.49 5.0625 1.48 5.0625 2.5 C2.35370665 3.85439668 0.05316732 3.56501451 -2.9375 3.5 C-3.2675 2.51 -3.5975 1.52 -3.9375 0.5 C-1.9375 -0.5 -1.9375 -0.5 0 0 Z " fill="#1EC4F2" transform="translate(212.9375,81.5)"/>
<path d="M0 0 C-2.12392506 0.6700834 -4.24917524 1.33596797 -6.375 2 C-7.55835937 2.37125 -8.74171875 2.7425 -9.9609375 3.125 C-13 4 -13 4 -15 4 C-14.67 3.01 -14.34 2.02 -14 1 C-12.41913952 0.63495397 -10.83516093 0.28339494 -9.25 -0.0625 C-8.36828125 -0.25972656 -7.4865625 -0.45695312 -6.578125 -0.66015625 C-4.01320972 -0.99825872 -2.42908361 -0.81158635 0 0 Z " fill="#217ABC" transform="translate(112,78)"/>
<path d="M0 0 C0 0.33 0 0.66 0 1 C-0.90492188 1.09087891 -0.90492188 1.09087891 -1.828125 1.18359375 C-3.02695313 1.30927734 -3.02695313 1.30927734 -4.25 1.4375 C-5.03890625 1.51871094 -5.8278125 1.59992187 -6.640625 1.68359375 C-8.98445532 1.91600325 -8.98445532 1.91600325 -11.046875 2.72265625 C-13 3 -13 3 -15.25 1.5625 C-15.8275 1.046875 -16.405 0.53125 -17 0 C-11.0885256 -0.77313045 -5.8685408 -1.14819277 0 0 Z " fill="#39B5E0" transform="translate(158,12)"/>
<path d="M0 0 C0.33 0.66 0.66 1.32 1 2 C-0.25 3.5625 -0.25 3.5625 -2 5 C-4.32488881 4.7181953 -5.90892835 4.04553582 -8 3 C-8 2.34 -8 1.68 -8 1 C-6.865625 1.020625 -5.73125 1.04125 -4.5625 1.0625 C-1.18424326 1.41577477 -1.18424326 1.41577477 0 0 Z " fill="#35DAF5" transform="translate(244,69)"/>
<path d="M0 0 C0.99 0.66 1.98 1.32 3 2 C2.625 3.9375 2.625 3.9375 2 6 C1.01 6.495 1.01 6.495 0 7 C-0.99 6.34 -1.98 5.68 -3 5 C-2.67 4.01 -2.34 3.02 -2 2 C-1.34 2 -0.68 2 0 2 C0 1.34 0 0.68 0 0 Z " fill="#49BB35" transform="translate(44,227)"/>
<path d="M0 0 C1.32 0 2.64 0 4 0 C4 1.65 4 3.3 4 5 C2.35 5.33 0.7 5.66 -1 6 C-0.67 4.02 -0.34 2.04 0 0 Z " fill="#329F37" transform="translate(242,208)"/>
<path d="M0 0 C0.99 0.33 1.98 0.66 3 1 C1.02 3.97 -0.96 6.94 -3 10 C-4 6 -4 6 -2.0625 2.75 C-1.381875 1.8425 -0.70125 0.935 0 0 Z " fill="#3E9143" transform="translate(250,203)"/>
<path d="M0 0 C2.97 0.495 2.97 0.495 6 1 C5.34 1.433125 4.68 1.86625 4 2.3125 C3.34 2.869375 2.68 3.42625 2 4 C2 4.99 2 5.98 2 7 C1.01 6.67 0.02 6.34 -1 6 C-0.67 4.02 -0.34 2.04 0 0 Z " fill="#309F34" transform="translate(217,232)"/>
<path d="M0 0 C0.66 0.33 1.32 0.66 2 1 C1.34 1.66 0.68 2.32 0 3 C0.32041397 5.60280568 0.32041397 5.60280568 1 8 C-0.32 7.67 -1.64 7.34 -3 7 C-3 6.34 -3 5.68 -3 5 C-3.66 4.67 -4.32 4.34 -5 4 C-4.34 4 -3.68 4 -3 4 C-3 3.34 -3 2.68 -3 2 C-2.01 1.34 -1.02 0.68 0 0 Z " fill="#73CC49" transform="translate(190,184)"/>
<path d="M0 0 C4.6875 3.61328125 4.6875 3.61328125 6 5 C6 5.99 6 6.98 6 8 C4.02 8.33 2.04 8.66 0 9 C0.33 8.34 0.66 7.68 1 7 C1.66 7 2.32 7 3 7 C2.67 6.01 2.34 5.02 2 4 C1.34 3.67 0.68 3.34 0 3 C0 2.01 0 1.02 0 0 Z " fill="#15387F" transform="translate(65,145)"/>
<path d="M0 0 C2.64 0 5.28 0 8 0 C7.67 1.32 7.34 2.64 7 4 C5.68 4 4.36 4 3 4 C3 3.34 3 2.68 3 2 C2.01 2 1.02 2 0 2 C0 1.34 0 0.68 0 0 Z " fill="#34D1FB" transform="translate(176,20)"/>
<path d="M0 0 C0 0.99 0 1.98 0 3 C-0.99 3.495 -0.99 3.495 -2 4 C-2.99 5.485 -2.99 5.485 -4 7 C-6 4 -6 4 -6 1 C-3.92446352 0.4465236 -2.15634036 0 0 0 Z " fill="#3CAA39" transform="translate(86,255)"/>
<path d="M0 0 C0.99 0.66 1.98 1.32 3 2 C2.401875 2.04125 1.80375 2.0825 1.1875 2.125 C-1.35100832 2.87739901 -1.35100832 2.87739901 -2.75 6.0625 C-3.1625 7.031875 -3.575 8.00125 -4 9 C-4.66 9 -5.32 9 -6 9 C-5.67 7.35 -5.34 5.7 -5 4 C-4.34 4 -3.68 4 -3 4 C-3 3.01 -3 2.02 -3 1 C-2.01 0.67 -1.02 0.34 0 0 Z " fill="#86D045" transform="translate(50,191)"/>
<path d="M0 0 C3.875 0.875 3.875 0.875 5 2 C5.07258946 4.18639453 5.08373783 6.37500389 5.0625 8.5625 C5.05347656 9.76003906 5.04445312 10.95757812 5.03515625 12.19140625 C5.02355469 13.11824219 5.01195312 14.04507813 5 15 C4.67 15 4.34 15 4 15 C3.96261719 14.25234375 3.92523438 13.5046875 3.88671875 12.734375 C3.82097656 11.74953125 3.75523437 10.7646875 3.6875 9.75 C3.62949219 8.77546875 3.57148438 7.8009375 3.51171875 6.796875 C2.95363476 3.74658389 2.03630224 2.29288724 0 0 Z " fill="#479845" transform="translate(206,133)"/>
<path d="M0 0 C-0.33 0.99 -0.66 1.98 -1 3 C-2.8125 3.625 -2.8125 3.625 -5 4 C-5.70125 4.226875 -6.4025 4.45375 -7.125 4.6875 C-7.74375 4.790625 -8.3625 4.89375 -9 5 C-9.66 4.34 -10.32 3.68 -11 3 C-9.54293274 2.49632243 -8.08429904 1.99717444 -6.625 1.5 C-5.81289062 1.2215625 -5.00078125 0.943125 -4.1640625 0.65625 C-2 0 -2 0 0 0 Z " fill="#2C9E2D" transform="translate(210,122)"/>
<path d="M0 0 C3.56720996 2.67540747 6.41126424 5.35659412 9 9 C9 9.66 9 10.32 9 11 C8.01 10.67 7.02 10.34 6 10 C4.8125 7.4375 4.8125 7.4375 4 5 C3.34 5 2.68 5 2 5 C1.34 3.35 0.68 1.7 0 0 Z " fill="#50C9E2" transform="translate(199,10)"/>
<path d="M0 0 C0.66 0.33 1.32 0.66 2 1 C2.95067299 4.28414305 3.10102197 5.69693408 2 9 C1.34 9 0.68 9 0 9 C-0.87890625 2.84765625 -0.87890625 2.84765625 -1 1 C-0.67 0.67 -0.34 0.34 0 0 Z " fill="#0851BE" transform="translate(1,119)"/>
<path d="M0 0 C1.22589844 0.01353516 1.22589844 0.01353516 2.4765625 0.02734375 C3.41628906 0.04474609 3.41628906 0.04474609 4.375 0.0625 C1.95369669 2.48380331 0.57388623 2.59090504 -2.75 3.1875 C-4.11511719 3.43886719 -4.11511719 3.43886719 -5.5078125 3.6953125 C-6.20648438 3.81648438 -6.90515625 3.93765625 -7.625 4.0625 C-7.295 3.0725 -6.965 2.0825 -6.625 1.0625 C-4.21954362 -0.14022819 -2.67503047 -0.03821472 0 0 Z " fill="#23C5EC" transform="translate(239.625,74.9375)"/>
<path d="M0 0 C0.91007813 0.00902344 1.82015625 0.01804687 2.7578125 0.02734375 C3.45648438 0.03894531 4.15515625 0.05054687 4.875 0.0625 C4.875 0.3925 4.875 0.7225 4.875 1.0625 C0.915 1.7225 -3.045 2.3825 -7.125 3.0625 C-7.125 2.4025 -7.125 1.7425 -7.125 1.0625 C-4.60024538 -0.19987731 -2.81299534 -0.03606404 0 0 Z " fill="#2D98C7" transform="translate(167.125,97.9375)"/>
<path d="M0 0 C1.53445094 3.06890187 0.54984289 5.70094266 0 9 C-1.32 9.33 -2.64 9.66 -4 10 C-3.52449439 8.51965236 -3.04448784 7.04074979 -2.5625 5.5625 C-2.29566406 4.73878906 -2.02882812 3.91507812 -1.75390625 3.06640625 C-1 1 -1 1 0 0 Z " fill="#4ECAE7" transform="translate(189,4)"/>
<path d="M0 0 C3 1.6875 3 1.6875 6 4 C6.375 6.75 6.375 6.75 6 9 C2.91910327 6.22719294 1.31224548 3.93673644 0 0 Z " fill="#62AC4D" transform="translate(31,217)"/>
<path d="M0 0 C0.99 0 1.98 0 3 0 C3 1.98 3 3.96 3 6 C2.01 6.33 1.02 6.66 0 7 C0 4.69 0 2.38 0 0 Z " fill="#44B434" transform="translate(264,121)"/>
<path d="M0 0 C3.63 0 7.26 0 11 0 C10.67 0.99 10.34 1.98 10 3 C6.7 2.34 3.4 1.68 0 1 C0 0.67 0 0.34 0 0 Z " fill="#2690C8" transform="translate(140,77)"/>
<path d="M0 0 C1.32 0 2.64 0 4 0 C4 0.66 4 1.32 4 2 C4.66 2.33 5.32 2.66 6 3 C4.125 4.0625 4.125 4.0625 2 5 C1.34 4.67 0.68 4.34 0 4 C0 2.68 0 1.36 0 0 Z " fill="#0B6FDB" transform="translate(28,74)"/>
<path d="M0 0 C-5.75 3 -5.75 3 -8 3 C-7.67 1.68 -7.34 0.36 -7 -1 C-3.51418144 -2.2020064 -3.32007656 -2.21338437 0 0 Z " fill="#2C9C38" transform="translate(201,250)"/>
<path d="M0 0 C0.66 0.33 1.32 0.66 2 1 C0.68 2.65 -0.64 4.3 -2 6 C-3.32 5.34 -4.64 4.68 -6 4 C-6 3.67 -6 3.34 -6 3 C-4.35 3 -2.7 3 -1 3 C-0.67 2.01 -0.34 1.02 0 0 Z " fill="#8BD73C" transform="translate(151,200)"/>
<path d="M0 0 C2.50298434 2.93828597 3.46930939 5.17902761 4 9 C3.01 9 2.02 9 1 9 C0.67 6.03 0.34 3.06 0 0 Z " fill="#0B4293" transform="translate(0,149)"/>
<path d="M0 0 C1.65 0 3.3 0 5 0 C5 0.99 5 1.98 5 3 C4.34 3 3.68 3 3 3 C2.67 3.99 2.34 4.98 2 6 C0 2.25 0 2.25 0 0 Z " fill="#15B6E8" transform="translate(189,88)"/>
<path d="M0 0 C2 3 2 3 2 7 C0.68 7.33 -0.64 7.66 -2 8 C-1.125 1.125 -1.125 1.125 0 0 Z " fill="#12A3EE" transform="translate(150,86)"/>
<path d="M0 0 C0.33 0.66 0.66 1.32 1 2 C1.99 2.33 2.98 2.66 4 3 C-0.455 3.495 -0.455 3.495 -5 4 C-5.33 3.01 -5.66 2.02 -6 1 C-5.38125 1.20625 -4.7625 1.4125 -4.125 1.625 C-3.073125 1.810625 -3.073125 1.810625 -2 2 C-1.34 1.34 -0.68 0.68 0 0 Z " fill="#0F81D0" transform="translate(113,73)"/>
<path d="M0 0 C0.33 0.99 0.66 1.98 1 3 C2.65204456 3.70211894 4.31923769 4.36971413 6 5 C6.33 5.66 6.66 6.32 7 7 C5.68 7 4.36 7 3 7 C3 6.34 3 5.68 3 5 C2.01 5 1.02 5 0 5 C0 3.35 0 1.7 0 0 Z " fill="#37D6FA" transform="translate(209,25)"/>
<path d="M0 0 C0.66 0 1.32 0 2 0 C3.23921302 2.97411124 4.30058404 5.85262818 5 9 C2.33264727 6.51047079 0.44253657 4.36591866 -1 1 C-0.67 0.67 -0.34 0.34 0 0 Z " fill="#74B058" transform="translate(21,201)"/>
<path d="M0 0 C1.37562854 1.28965176 2.70766393 2.62689293 4 4 C4 4.66 4 5.32 4 6 C4.66 6 5.32 6 6 6 C5.67 6.99 5.34 7.98 5 9 C1.9083091 6.47043472 1.09068668 3.77545388 0 0 Z " fill="#0C3472" transform="translate(8,179)"/>
<path d="M0 0 C0.66 0.33 1.32 0.66 2 1 C1.34 2.32 0.68 3.64 0 5 C-1.32 5 -2.64 5 -4 5 C-3.6875 3.0625 -3.6875 3.0625 -3 1 C-2.01 0.67 -1.02 0.34 0 0 Z " fill="#30A233" transform="translate(239,106)"/>
<path d="M0 0 C0.33 0 0.66 0 1 0 C1.25532751 3.06393013 1.21861333 4.63233212 -0.375 7.3125 C-1.179375 8.1478125 -1.179375 8.1478125 -2 9 C-2.66 9 -3.32 9 -4 9 C-2.80100302 5.9168649 -1.52299523 2.93720508 0 0 Z " fill="#165DB2" transform="translate(16,76)"/>
<path d="M0 0 C3.16115776 1.36983503 3.9927092 1.9890638 6 5 C5.01 5.33 4.02 5.66 3 6 C0 2.25 0 2.25 0 0 Z " fill="#4BD3F3" transform="translate(224,42)"/>
</svg>
